<svg width="290" height="102" viewBox="0 0 290 102" fill="none" xmlns="http://www.w3.org/2000/svg">
<g clip-path="url(#clip0_1230_81485)">
<path d="M282.455 2.51074H88.5449C85.2112 2.51074 82.5088 5.21693 82.5088 8.55519V61.4441C82.5088 64.7823 85.2112 67.4885 88.5449 67.4885H282.455C285.788 67.4885 288.491 64.7823 288.491 61.4441V8.55519C288.491 5.21693 285.788 2.51074 282.455 2.51074Z" fill="#FAFAFA"/>
<path d="M179.841 21.7773H104.39C102.931 21.7773 101.749 22.9613 101.749 24.4218V45.5773C101.749 47.0378 102.931 48.2218 104.39 48.2218H179.841C181.3 48.2218 182.482 47.0378 182.482 45.5773V24.4218C182.482 22.9613 181.3 21.7773 179.841 21.7773Z" fill="white"/>
<path d="M119.48 34.9999C119.48 30.8271 116.102 27.4443 111.935 27.4443C107.768 27.4443 104.39 30.8271 104.39 34.9999C104.39 39.1727 107.768 42.5554 111.935 42.5554C116.102 42.5554 119.48 39.1727 119.48 34.9999Z" fill="white"/>
<path fill-rule="evenodd" clip-rule="evenodd" d="M109.558 31.8266C109.558 32.3274 109.153 32.7333 108.652 32.7333C108.152 32.7333 107.747 32.3274 107.747 31.8266C107.747 31.3259 108.152 30.9199 108.652 30.9199C109.153 30.9199 109.558 31.3259 109.558 31.8266ZM109.558 34.9999C109.558 35.5007 109.153 35.9066 108.652 35.9066C108.152 35.9066 107.747 35.5007 107.747 34.9999C107.747 34.4992 108.152 34.0933 108.652 34.0933C109.153 34.0933 109.558 34.4992 109.558 34.9999ZM108.652 39.0799C109.153 39.0799 109.558 38.674 109.558 38.1733C109.558 37.6725 109.153 37.2666 108.652 37.2666C108.152 37.2666 107.747 37.6725 107.747 38.1733C107.747 38.674 108.152 39.0799 108.652 39.0799ZM112.84 31.8266C112.84 32.3274 112.435 32.7333 111.935 32.7333C111.434 32.7333 111.029 32.3274 111.029 31.8266C111.029 31.3259 111.434 30.9199 111.935 30.9199C112.435 30.9199 112.84 31.3259 112.84 31.8266ZM111.935 35.9066C112.435 35.9066 112.84 35.5007 112.84 34.9999C112.84 34.4992 112.435 34.0933 111.935 34.0933C111.434 34.0933 111.029 34.4992 111.029 34.9999C111.029 35.5007 111.434 35.9066 111.935 35.9066ZM112.84 38.1733C112.84 38.674 112.435 39.0799 111.935 39.0799C111.434 39.0799 111.029 38.674 111.029 38.1733C111.029 37.6725 111.434 37.2666 111.935 37.2666C112.435 37.2666 112.84 37.6725 112.84 38.1733ZM115.217 32.7333C115.717 32.7333 116.122 32.3274 116.122 31.8266C116.122 31.3259 115.717 30.9199 115.217 30.9199C114.717 30.9199 114.311 31.3259 114.311 31.8266C114.311 32.3274 114.717 32.7333 115.217 32.7333ZM116.122 34.9999C116.122 35.5007 115.717 35.9066 115.217 35.9066C114.717 35.9066 114.311 35.5007 114.311 34.9999C114.311 34.4992 114.717 34.0933 115.217 34.0933C115.717 34.0933 116.122 34.4992 116.122 34.9999ZM115.217 39.0799C115.717 39.0799 116.122 38.674 116.122 38.1733C116.122 37.6725 115.717 37.2666 115.217 37.2666C114.717 37.2666 114.311 37.6725 114.311 38.1733C114.311 38.674 114.717 39.0799 115.217 39.0799Z" fill="#616161"/>
<path d="M130.15 32.7332H131.321L128.979 38.7776H127.989L125.707 32.7332H126.926L128.532 37.4116H128.556L130.15 32.7332ZM137.037 38.7776H135.987V38.1369C135.492 38.693 134.948 38.9227 134.176 38.9227C133.065 38.9227 132.039 38.3787 132.039 37.0852C132.039 35.5499 133.403 35.0784 134.731 35.0784C135.033 35.0784 135.419 35.1026 135.938 35.2114V34.9938C135.938 34.075 135.504 33.5431 134.514 33.5431C133.814 33.5431 133.077 33.8091 132.594 34.075L132.268 33.1563C132.896 32.854 133.814 32.5881 134.646 32.5881C136.397 32.5881 137.037 33.5431 137.037 35.1026V38.7776ZM135.938 37.2786V36.0334C135.492 35.9367 135.154 35.9125 134.852 35.9125C134.103 35.9125 133.113 36.0939 133.113 37.0005C133.113 37.738 133.669 38.0039 134.308 38.0039C134.924 38.0039 135.455 37.6896 135.938 37.2786ZM140.09 29.7109V38.7776H138.992V29.7109H140.09ZM144.687 32.5881C146.449 32.5881 147.765 33.9904 147.765 35.7554C147.765 37.5204 146.449 38.9227 144.687 38.9227C142.924 38.9227 141.608 37.5204 141.608 35.7554C141.608 33.9904 142.924 32.5881 144.687 32.5881ZM146.642 35.7554C146.642 34.5828 145.822 33.6036 144.687 33.6036C143.552 33.6036 142.731 34.5828 142.731 35.7554C142.731 36.928 143.552 37.9072 144.687 37.9072C145.822 37.9072 146.642 36.928 146.642 35.7554ZM150.382 32.7332V33.7365C150.744 33.0837 151.287 32.5881 151.939 32.5881C152.193 32.5881 152.362 32.6123 152.591 32.6606L152.386 33.8332C152.205 33.7486 152.048 33.7124 151.818 33.7124C151.203 33.7124 150.756 34.075 150.382 34.7278V38.7776H149.283V32.7332H150.382Z" fill="black"/>
<path d="M176.823 35.0003C176.823 29.9929 172.769 25.9336 167.769 25.9336C162.769 25.9336 158.715 29.9929 158.715 35.0003C158.715 40.0076 162.769 44.0669 167.769 44.0669C172.769 44.0669 176.823 40.0076 176.823 35.0003Z" fill="white"/>
<path fill-rule="evenodd" clip-rule="evenodd" d="M167.769 39.7218C165.169 39.7218 163.054 37.6035 163.054 34.9996C163.054 32.3956 165.169 30.2773 167.769 30.2773C170.369 30.2773 172.485 32.3956 172.485 34.9996C172.485 37.6035 170.369 39.7218 167.769 39.7218ZM167.769 30.8676C165.494 30.8676 163.643 32.7211 163.643 34.9996C163.643 37.278 165.494 39.1315 167.769 39.1315C170.045 39.1315 171.896 37.278 171.896 34.9996C171.896 32.7211 170.045 30.8676 167.769 30.8676ZM165.732 35.3109H169.859C170.021 35.3109 170.153 35.183 170.153 35.0255C170.153 34.8679 170.021 34.7401 169.859 34.7401H165.732C165.569 34.7401 165.437 34.8679 165.437 35.0255C165.437 35.183 165.569 35.3109 165.732 35.3109Z" fill="#616161"/>
<path fill-rule="evenodd" clip-rule="evenodd" d="M104.39 22.1559C103.14 22.1559 102.127 23.1708 102.127 24.4226V45.5782C102.127 46.83 103.14 47.8448 104.39 47.8448H179.841C181.092 47.8448 182.105 46.83 182.105 45.5782V24.4226C182.105 23.1708 181.092 22.1559 179.841 22.1559H104.39ZM101.372 24.4226C101.372 22.7535 102.723 21.4004 104.39 21.4004H179.841C181.508 21.4004 182.859 22.7535 182.859 24.4226V45.5782C182.859 47.2473 181.508 48.6004 179.841 48.6004H104.39C102.723 48.6004 101.372 47.2473 101.372 45.5782V24.4226Z" fill="#EBEBEB"/>
<path d="M266.61 21.7773H191.913C190.455 21.7773 189.272 22.9613 189.272 24.4218V45.5773C189.272 47.0378 190.455 48.2218 191.913 48.2218H266.61C268.068 48.2218 269.251 47.0378 269.251 45.5773V24.4218C269.251 22.9613 268.068 21.7773 266.61 21.7773Z" fill="#FAFAFA"/>
<path d="M207.003 34.9999C207.003 30.8271 203.625 27.4443 199.458 27.4443C195.291 27.4443 191.913 30.8271 191.913 34.9999C191.913 39.1727 195.291 42.5554 199.458 42.5554C203.625 42.5554 207.003 39.1727 207.003 34.9999Z" fill="#FAFAFA"/>
<path fill-rule="evenodd" clip-rule="evenodd" d="M197.081 31.8266C197.081 32.3274 196.676 32.7333 196.176 32.7333C195.676 32.7333 195.271 32.3274 195.271 31.8266C195.271 31.3259 195.676 30.9199 196.176 30.9199C196.676 30.9199 197.081 31.3259 197.081 31.8266ZM197.081 34.9999C197.081 35.5007 196.676 35.9066 196.176 35.9066C195.676 35.9066 195.271 35.5007 195.271 34.9999C195.271 34.4992 195.676 34.0933 196.176 34.0933C196.676 34.0933 197.081 34.4992 197.081 34.9999ZM196.176 39.0799C196.676 39.0799 197.081 38.674 197.081 38.1733C197.081 37.6725 196.676 37.2666 196.176 37.2666C195.676 37.2666 195.271 37.6725 195.271 38.1733C195.271 38.674 195.676 39.0799 196.176 39.0799ZM200.363 31.8266C200.363 32.3274 199.958 32.7333 199.458 32.7333C198.958 32.7333 198.553 32.3274 198.553 31.8266C198.553 31.3259 198.958 30.9199 199.458 30.9199C199.958 30.9199 200.363 31.3259 200.363 31.8266ZM199.458 35.9066C199.958 35.9066 200.363 35.5007 200.363 34.9999C200.363 34.4992 199.958 34.0933 199.458 34.0933C198.958 34.0933 198.553 34.4992 198.553 34.9999C198.553 35.5007 198.958 35.9066 199.458 35.9066ZM200.363 38.1733C200.363 38.674 199.958 39.0799 199.458 39.0799C198.958 39.0799 198.553 38.674 198.553 38.1733C198.553 37.6725 198.958 37.2666 199.458 37.2666C199.958 37.2666 200.363 37.6725 200.363 38.1733ZM202.74 32.7333C203.24 32.7333 203.646 32.3274 203.646 31.8266C203.646 31.3259 203.24 30.9199 202.74 30.9199C202.24 30.9199 201.835 31.3259 201.835 31.8266C201.835 32.3274 202.24 32.7333 202.74 32.7333ZM203.646 34.9999C203.646 35.5007 203.24 35.9066 202.74 35.9066C202.24 35.9066 201.835 35.5007 201.835 34.9999C201.835 34.4992 202.24 34.0933 202.74 34.0933C203.24 34.0933 203.646 34.4992 203.646 34.9999ZM202.74 39.0799C203.24 39.0799 203.646 38.674 203.646 38.1733C203.646 37.6725 203.24 37.2666 202.74 37.2666C202.24 37.2666 201.835 37.6725 201.835 38.1733C201.835 38.674 202.24 39.0799 202.74 39.0799Z" fill="#FAFAFA"/>
<path d="M217.63 29.8314L217.316 30.7501C217.086 30.6413 216.857 30.5809 216.567 30.5809C216.241 30.5809 216.024 30.6534 215.867 30.7743C215.59 31.004 215.553 31.4271 215.553 31.9711V32.7327H217.183V33.6998H215.553V38.7772H214.455V33.6998H213.767V32.7327H214.455V31.8623C214.455 31.2337 214.563 30.6776 214.829 30.2787C215.131 29.8314 215.626 29.5654 216.435 29.5654C216.833 29.5654 217.28 29.6863 217.63 29.8314ZM219.391 32.7327V33.7361C219.753 33.0833 220.296 32.5877 220.948 32.5877C221.202 32.5877 221.371 32.6118 221.6 32.6602L221.395 33.8328C221.214 33.7482 221.057 33.7119 220.827 33.7119C220.212 33.7119 219.765 34.0746 219.391 34.7274V38.7772H218.292V32.7327H219.391ZM227.798 36.033H223.199C223.271 37.0726 223.983 37.9793 225.142 37.9793C225.939 37.9793 226.579 37.6892 226.941 37.0001L227.738 37.5078C227.134 38.4749 226.313 38.9222 225.094 38.9222C223.175 38.9222 222.1 37.5199 222.1 35.7549C222.1 33.9537 223.416 32.5877 225.094 32.5877C226.688 32.5877 227.847 33.7845 227.847 35.4044C227.847 35.6099 227.822 35.8758 227.798 36.033ZM225.106 33.5306C224.128 33.5306 223.501 34.2438 223.283 35.1505H226.712C226.663 34.2922 226.012 33.5306 225.106 33.5306ZM232.211 33.6998H230.521V36.4319C230.521 36.5891 230.521 36.7221 230.533 36.9034C230.57 37.5441 230.775 37.9189 231.378 37.9189C231.62 37.9189 231.861 37.8463 232.054 37.7496L232.356 38.6321C232.054 38.7893 231.632 38.8981 231.234 38.8981C230.389 38.8981 229.869 38.5233 229.616 37.9551C229.471 37.6166 229.423 37.1693 229.423 36.6979V33.6998H228.614V32.7327H229.423V31.2821H230.521V32.7327H232.211V33.6998ZM238.727 36.033H234.127C234.2 37.0726 234.912 37.9793 236.071 37.9793C236.867 37.9793 237.507 37.6892 237.869 37.0001L238.666 37.5078C238.063 38.4749 237.242 38.9222 236.022 38.9222C234.103 38.9222 233.029 37.5199 233.029 35.7549C233.029 33.9537 234.344 32.5877 236.022 32.5877C237.616 32.5877 238.775 33.7845 238.775 35.4044C238.775 35.6099 238.751 35.8758 238.727 36.033ZM236.035 33.5306C235.057 33.5306 234.429 34.2438 234.212 35.1505H237.64C237.592 34.2922 236.94 33.5306 236.035 33.5306Z" fill="#FAFAFA"/>
<g opacity="0.2">
<path d="M263.592 35.0003C263.592 29.9929 259.538 25.9336 254.538 25.9336C249.537 25.9336 245.483 29.9929 245.483 35.0003C245.483 40.0076 249.537 44.0669 254.538 44.0669C259.538 44.0669 263.592 40.0076 263.592 35.0003Z" fill="#FAFAFA"/>
<path fill-rule="evenodd" clip-rule="evenodd" d="M254.538 39.7228C251.938 39.7228 249.822 37.6045 249.822 35.0005C249.822 32.3966 251.938 30.2783 254.538 30.2783C257.138 30.2783 259.254 32.3966 259.254 35.0005C259.254 37.6045 257.138 39.7228 254.538 39.7228ZM254.538 30.8686C252.262 30.8686 250.412 32.7221 250.412 35.0005C250.412 37.279 252.262 39.1325 254.538 39.1325C256.814 39.1325 258.664 37.279 258.664 35.0005C258.664 32.7221 256.814 30.8686 254.538 30.8686ZM252.501 35.3119H256.627C256.789 35.3119 256.921 35.184 256.921 35.0265C256.921 34.8689 256.789 34.7411 256.627 34.7411H252.501C252.338 34.7411 252.206 34.8689 252.206 35.0265C252.206 35.184 252.338 35.3119 252.501 35.3119Z" fill="#FAFAFA"/>
</g>
<path fill-rule="evenodd" clip-rule="evenodd" d="M190.758 21.6299C191.115 21.4819 191.505 21.4004 191.914 21.4004H192.66V22.1559H191.914C191.606 22.1559 191.314 22.2172 191.047 22.3278L190.758 21.6299ZM194.154 21.4004H195.648V22.1559H194.154V21.4004ZM197.142 21.4004H198.636V22.1559H197.142V21.4004ZM200.13 21.4004H201.624V22.1559H200.13V21.4004ZM203.118 21.4004H204.612V22.1559H203.118V21.4004ZM206.106 21.4004H207.6V22.1559H206.106V21.4004ZM209.094 21.4004H210.588V22.1559H209.094V21.4004ZM212.082 21.4004H213.576V22.1559H212.082V21.4004ZM215.07 21.4004H216.563V22.1559H215.07V21.4004ZM218.057 21.4004H219.551V22.1559H218.057V21.4004ZM221.045 21.4004H222.539V22.1559H221.045V21.4004ZM224.033 21.4004H225.527V22.1559H224.033V21.4004ZM227.021 21.4004H228.515V22.1559H227.021V21.4004ZM230.009 21.4004H231.503V22.1559H230.009V21.4004ZM232.997 21.4004H234.491V22.1559H232.997V21.4004ZM235.985 21.4004H237.479V22.1559H235.985V21.4004ZM238.973 21.4004H240.466V22.1559H238.973V21.4004ZM241.96 21.4004H243.454V22.1559H241.96V21.4004ZM244.948 21.4004H246.442V22.1559H244.948V21.4004ZM247.936 21.4004H249.43V22.1559H247.936V21.4004ZM250.924 21.4004H252.418V22.1559H250.924V21.4004ZM253.912 21.4004H255.406V22.1559H253.912V21.4004ZM256.9 21.4004H258.394V22.1559H256.9V21.4004ZM259.888 21.4004H261.382V22.1559H259.888V21.4004ZM262.875 21.4004H264.369V22.1559H262.875V21.4004ZM265.863 21.4004H266.61C267.019 21.4004 267.409 21.4819 267.766 21.6299L267.477 22.3278C267.21 22.2172 266.918 22.1559 266.61 22.1559H265.863V21.4004ZM269.399 23.2656C269.547 23.6225 269.628 24.0135 269.628 24.4226V25.1782H268.874V24.4226C268.874 24.1146 268.813 23.8218 268.702 23.5551L269.399 23.2656ZM188.896 24.4226C188.896 24.0135 188.977 23.6225 189.125 23.2656L189.822 23.5551C189.711 23.8218 189.65 24.1146 189.65 24.4226V25.1782H188.896V24.4226ZM188.896 28.2004V26.6893H189.65V28.2004H188.896ZM269.628 26.6893V28.2004H268.874V26.6893H269.628ZM188.896 31.2226V29.7115H189.65V31.2226H188.896ZM269.628 29.7115V31.2226H268.874V29.7115H269.628ZM188.896 34.2448V32.7337H189.65V34.2448H188.896ZM269.628 32.7337V34.2448H268.874V32.7337H269.628ZM188.896 37.2671V35.7559H189.65V37.2671H188.896ZM269.628 35.7559V37.2671H268.874V35.7559H269.628ZM188.896 40.2893V38.7782H189.65V40.2893H188.896ZM269.628 38.7782V40.2893H268.874V38.7782H269.628ZM188.896 43.3115V41.8004H189.65V43.3115H188.896ZM269.628 41.8004V43.3115H268.874V41.8004H269.628ZM188.896 45.5782V44.8226H189.65V45.5782C189.65 45.8862 189.711 46.179 189.822 46.4457L189.125 46.7351C188.977 46.3783 188.896 45.9873 188.896 45.5782ZM269.628 44.8226V45.5782C269.628 45.9873 269.547 46.3783 269.399 46.7351L268.702 46.4457C268.813 46.179 268.874 45.8862 268.874 45.5782V44.8226H269.628ZM191.914 48.6004C191.505 48.6004 191.115 48.5189 190.758 48.3709L191.047 47.673C191.314 47.7836 191.606 47.8448 191.914 47.8448H192.661V48.6004H191.914ZM267.766 48.3709C267.409 48.5189 267.019 48.6004 266.61 48.6004H265.863V47.8448H266.61C266.918 47.8448 267.21 47.7836 267.477 47.673L267.766 48.3709ZM195.648 48.6004H194.154V47.8448H195.648V48.6004ZM198.636 48.6004H197.142V47.8448H198.636V48.6004ZM201.624 48.6004H200.13V47.8448H201.624V48.6004ZM204.612 48.6004H203.118V47.8448H204.612V48.6004ZM207.6 48.6004H206.106V47.8448H207.6V48.6004ZM210.588 48.6004H209.094V47.8448H210.588V48.6004ZM213.576 48.6004H212.082V47.8448H213.576V48.6004ZM216.563 48.6004H215.07V47.8448H216.563V48.6004ZM219.551 48.6004H218.057V47.8448H219.551V48.6004ZM222.539 48.6004H221.045V47.8448H222.539V48.6004ZM225.527 48.6004H224.033V47.8448H225.527V48.6004ZM228.515 48.6004H227.021V47.8448H228.515V48.6004ZM231.503 48.6004H230.009V47.8448H231.503V48.6004ZM234.491 48.6004H232.997V47.8448H234.491V48.6004ZM237.479 48.6004H235.985V47.8448H237.479V48.6004ZM240.466 48.6004H238.972V47.8448H240.466V48.6004ZM243.454 48.6004H241.96V47.8448H243.454V48.6004ZM246.442 48.6004H244.948V47.8448H246.442V48.6004ZM249.43 48.6004H247.936V47.8448H249.43V48.6004ZM252.418 48.6004H250.924V47.8448H252.418V48.6004ZM255.406 48.6004H253.912V47.8448H255.406V48.6004ZM258.394 48.6004H256.9V47.8448H258.394V48.6004ZM261.382 48.6004H259.888V47.8448H261.382V48.6004ZM264.369 48.6004H262.876V47.8448H264.369V48.6004Z" fill="#616161" fill-opacity="0.5"/>
<path d="M254.161 10.8223H179.464C177.798 10.8223 176.446 12.1754 176.446 13.8445V35C176.446 36.6692 177.798 38.0223 179.464 38.0223H254.161C255.828 38.0223 257.179 36.6692 257.179 35V13.8445C257.179 12.1754 255.828 10.8223 254.161 10.8223Z" fill="white"/>
<path d="M194.554 24.4218C194.554 20.2489 191.176 16.8662 187.009 16.8662C182.842 16.8662 179.464 20.2489 179.464 24.4218C179.464 28.5946 182.842 31.9773 187.009 31.9773C191.176 31.9773 194.554 28.5946 194.554 24.4218Z" fill="white"/>
<path fill-rule="evenodd" clip-rule="evenodd" d="M184.632 21.2485C184.632 21.7492 184.227 22.1551 183.727 22.1551C183.226 22.1551 182.821 21.7492 182.821 21.2485C182.821 20.7478 183.226 20.3418 183.727 20.3418C184.227 20.3418 184.632 20.7478 184.632 21.2485ZM184.632 24.4218C184.632 24.9226 184.227 25.3285 183.727 25.3285C183.226 25.3285 182.821 24.9226 182.821 24.4218C182.821 23.9211 183.226 23.5151 183.727 23.5151C184.227 23.5151 184.632 23.9211 184.632 24.4218ZM183.727 28.5018C184.227 28.5018 184.632 28.0959 184.632 27.5951C184.632 27.0944 184.227 26.6885 183.727 26.6885C183.226 26.6885 182.821 27.0944 182.821 27.5951C182.821 28.0959 183.226 28.5018 183.727 28.5018ZM187.914 21.2485C187.914 21.7492 187.509 22.1551 187.009 22.1551C186.509 22.1551 186.103 21.7492 186.103 21.2485C186.103 20.7478 186.509 20.3418 187.009 20.3418C187.509 20.3418 187.914 20.7478 187.914 21.2485ZM187.009 25.3285C187.509 25.3285 187.914 24.9226 187.914 24.4218C187.914 23.9211 187.509 23.5151 187.009 23.5151C186.509 23.5151 186.103 23.9211 186.103 24.4218C186.103 24.9226 186.509 25.3285 187.009 25.3285ZM187.914 27.5951C187.914 28.0959 187.509 28.5018 187.009 28.5018C186.509 28.5018 186.103 28.0959 186.103 27.5951C186.103 27.0944 186.509 26.6885 187.009 26.6885C187.509 26.6885 187.914 27.0944 187.914 27.5951ZM190.291 22.1551C190.791 22.1551 191.196 21.7492 191.196 21.2485C191.196 20.7478 190.791 20.3418 190.291 20.3418C189.791 20.3418 189.386 20.7478 189.386 21.2485C189.386 21.7492 189.791 22.1551 190.291 22.1551ZM191.196 24.4218C191.196 24.9226 190.791 25.3285 190.291 25.3285C189.791 25.3285 189.386 24.9226 189.386 24.4218C189.386 23.9211 189.791 23.5151 190.291 23.5151C190.791 23.5151 191.196 23.9211 191.196 24.4218ZM190.291 28.5018C190.791 28.5018 191.196 28.0959 191.196 27.5951C191.196 27.0944 190.791 26.6885 190.291 26.6885C189.791 26.6885 189.386 27.0944 189.386 27.5951C189.386 28.0959 189.791 28.5018 190.291 28.5018Z" fill="#0050DC"/>
<path d="M205.18 19.2542L204.866 20.173C204.636 20.0642 204.407 20.0037 204.117 20.0037C203.791 20.0037 203.574 20.0763 203.417 20.1972C203.139 20.4269 203.103 20.85 203.103 21.394V22.1556H204.733V23.1227H203.103V28.2H202.005V23.1227H201.316V22.1556H202.005V21.2852C202.005 20.6565 202.113 20.1005 202.379 19.7015C202.681 19.2542 203.176 18.9883 203.984 18.9883C204.383 18.9883 204.829 19.1092 205.18 19.2542ZM206.941 22.1556V23.1589C207.303 22.5061 207.846 22.0105 208.498 22.0105C208.751 22.0105 208.92 22.0347 209.15 22.083L208.945 23.2557C208.763 23.171 208.607 23.1348 208.377 23.1348C207.761 23.1348 207.315 23.4974 206.941 24.1502V28.2H205.842V22.1556H206.941ZM215.348 25.4558H210.749C210.821 26.4955 211.533 27.4021 212.692 27.4021C213.489 27.4021 214.129 27.112 214.491 26.4229L215.288 26.9307C214.684 27.8978 213.863 28.3451 212.644 28.3451C210.724 28.3451 209.65 26.9428 209.65 25.1778C209.65 23.3765 210.966 22.0105 212.644 22.0105C214.237 22.0105 215.396 23.2073 215.396 24.8272C215.396 25.0327 215.372 25.2987 215.348 25.4558ZM212.656 22.9534C211.678 22.9534 211.05 23.6667 210.833 24.5733H214.262C214.213 23.715 213.561 22.9534 212.656 22.9534ZM219.761 23.1227H218.071V25.8548C218.071 26.0119 218.071 26.1449 218.083 26.3262C218.119 26.9669 218.325 27.3417 218.928 27.3417C219.17 27.3417 219.411 27.2692 219.604 27.1725L219.906 28.0549C219.604 28.2121 219.182 28.3209 218.783 28.3209C217.938 28.3209 217.419 27.9461 217.166 27.378C217.021 27.0395 216.973 26.5922 216.973 26.1207V23.1227H216.164V22.1556H216.973V20.7049H218.071V22.1556H219.761V23.1227ZM226.276 25.4558H221.677C221.749 26.4955 222.462 27.4021 223.621 27.4021C224.417 27.4021 225.057 27.112 225.419 26.4229L226.216 26.9307C225.612 27.8978 224.792 28.3451 223.572 28.3451C221.653 28.3451 220.578 26.9428 220.578 25.1778C220.578 23.3765 221.894 22.0105 223.572 22.0105C225.166 22.0105 226.325 23.2073 226.325 24.8272C226.325 25.0327 226.301 25.2987 226.276 25.4558ZM223.584 22.9534C222.606 22.9534 221.979 23.6667 221.761 24.5733H225.19C225.142 23.715 224.49 22.9534 223.584 22.9534Z" fill="#0050DC"/>
<g opacity="0.2">
<path d="M251.142 24.4221C251.142 19.4148 247.089 15.3555 242.088 15.3555C237.088 15.3555 233.034 19.4148 233.034 24.4221C233.034 29.4295 237.088 33.4888 242.088 33.4888C247.089 33.4888 251.142 29.4295 251.142 24.4221Z" fill="white"/>
<path fill-rule="evenodd" clip-rule="evenodd" d="M242.089 29.1446C239.489 29.1446 237.373 27.0264 237.373 24.4224C237.373 21.8185 239.489 19.7002 242.089 19.7002C244.689 19.7002 246.804 21.8185 246.804 24.4224C246.804 27.0264 244.689 29.1446 242.089 29.1446ZM242.089 20.2904C239.813 20.2904 237.962 22.144 237.962 24.4224C237.962 26.7009 239.813 28.5544 242.089 28.5544C244.364 28.5544 246.215 26.7009 246.215 24.4224C246.215 22.144 244.364 20.2904 242.089 20.2904ZM240.052 24.7338H244.178C244.34 24.7338 244.472 24.6059 244.472 24.4483C244.472 24.2908 244.34 24.163 244.178 24.163H240.052C239.889 24.163 239.757 24.2908 239.757 24.4483C239.757 24.6059 239.889 24.7338 240.052 24.7338Z" fill="#616161"/>
</g>
<path fill-rule="evenodd" clip-rule="evenodd" d="M179.464 10.8226C177.797 10.8226 176.446 12.1757 176.446 13.8449V35.0004C176.446 36.6695 177.797 38.0226 179.464 38.0226H254.16C255.827 38.0226 257.178 36.6695 257.178 35.0004V13.8449C257.178 12.1757 255.827 10.8226 254.16 10.8226H179.464ZM174.937 13.8449C174.937 11.3412 176.963 9.31152 179.464 9.31152H254.16C256.661 9.31152 258.687 11.3412 258.687 13.8449V35.0004C258.687 37.5041 256.661 39.5337 254.16 39.5337H179.464C176.963 39.5337 174.937 37.5041 174.937 35.0004V13.8449Z" fill="#2282FF" fill-opacity="0.58"/>
<path fill-rule="evenodd" clip-rule="evenodd" d="M88.5451 2.51111C85.2115 2.51111 82.509 5.2173 82.509 8.55556V61.4444C82.509 64.7827 85.2115 67.4889 88.5451 67.4889H282.455C285.789 67.4889 288.491 64.7827 288.491 61.4444V8.55556C288.491 5.2173 285.789 2.51111 282.455 2.51111H88.5451ZM81 8.55556C81 4.38274 84.3781 1 88.5451 1H282.455C286.622 1 290 4.38274 290 8.55556V61.4444C290 65.6173 286.622 69 282.455 69H88.5451C84.3781 69 81 65.6173 81 61.4444V8.55556Z" fill="#2282FF" fill-opacity="0.58"/>
</g>
<path d="M216.798 43.9585L218.75 43.9586C219.885 43.9586 220.452 45.3343 219.651 46.1352L217.081 48.7068C216.583 49.2048 215.776 49.2047 215.278 48.7068L212.707 46.1349C211.905 45.3325 212.476 43.9583 213.609 43.9583L215.561 43.9584V39.799H211.401L211.401 41.7506C211.401 42.8855 210.025 43.4531 209.224 42.6522L206.653 40.0819C206.155 39.5839 206.155 38.7766 206.653 38.2787L209.225 35.7083C210.027 34.9058 211.401 35.4773 211.401 36.6099L211.401 38.5615H215.561V34.4021L213.609 34.402C212.474 34.402 211.906 33.0262 212.707 32.2254L215.278 29.6537C215.776 29.1557 216.583 29.1558 217.081 29.6537L219.651 32.2256C220.454 33.0281 219.882 34.4022 218.75 34.4022L216.798 34.4021V38.5615H220.958L220.958 36.6099C220.958 35.4751 222.333 34.9075 223.134 35.7084L225.706 38.2787C226.204 38.7767 226.204 39.584 225.706 40.0819L223.134 42.6523C222.331 43.4547 220.957 42.8833 220.957 41.7507L220.957 39.799H216.798V43.9585Z" fill="#333333"/>
<path fill-rule="evenodd" clip-rule="evenodd" d="M220.957 41.7506L220.957 39.7989H216.798V43.9584L218.75 43.9585C219.885 43.9585 220.452 45.3342 219.651 46.1351L217.081 48.7067C216.583 49.2047 215.776 49.2046 215.278 48.7067L212.707 46.1348C211.905 45.3324 212.476 43.9582 213.609 43.9582L215.56 43.9583V39.7989H211.401L211.401 41.7506C211.401 42.8854 210.025 43.453 209.224 42.6522L206.653 40.0818C206.155 39.5838 206.155 38.7765 206.653 38.2786L209.225 35.7082C210.027 34.9058 211.401 35.4772 211.401 36.6098L211.401 38.5614H215.56V34.402L213.609 34.4019C212.474 34.4019 211.906 33.0262 212.707 32.2253L215.277 29.6537C215.775 29.1557 216.583 29.1558 217.081 29.6537L219.651 32.2256C220.453 33.028 219.882 34.4022 218.749 34.4022L216.798 34.4021V38.5614H220.957L220.958 36.6099C220.958 35.475 222.333 34.9074 223.134 35.7083L225.706 38.2786C226.204 38.7766 226.204 39.5839 225.706 40.0818L223.134 42.6522C222.331 43.4546 220.957 42.8832 220.957 41.7506ZM223.841 43.3593C222.407 44.7931 219.957 43.7722 219.957 41.7506L219.957 40.7989H217.798V42.9585L218.75 42.9585C218.75 42.9585 218.75 42.9585 218.75 42.9585C220.777 42.9585 221.788 45.4125 220.359 46.842C220.359 46.8421 220.359 46.842 220.359 46.842L217.788 49.4137C216.9 50.3023 215.459 50.3022 214.571 49.4139L212 46.8419C212 46.8419 212 46.842 212 46.8419C210.567 45.4082 211.587 42.9582 213.609 42.9582L214.56 42.9583V40.7989H212.401L212.401 41.7506C212.401 41.7506 212.401 41.7506 212.401 41.7506C212.401 43.7781 209.947 44.7887 208.517 43.3594C208.517 43.3594 208.517 43.3595 208.517 43.3594L205.946 40.7891C205.057 39.9005 205.057 38.4599 205.946 37.5715L208.517 35.0011C208.517 35.0011 208.518 35.001 208.517 35.0011C209.951 33.5676 212.401 34.5883 212.401 36.6098L212.401 37.5614H214.56V35.4019L213.609 35.4019C213.609 35.4019 213.609 35.4019 213.609 35.4019C211.581 35.4019 210.571 32.9479 212 31.5184C212 31.5184 212 31.5183 212 31.5184L214.57 28.9467C215.459 28.0581 216.899 28.0582 217.788 28.9465L220.358 31.5185C220.358 31.5184 220.358 31.5185 220.358 31.5185C221.792 32.9522 220.771 35.4022 218.749 35.4022L217.798 35.4021V37.5614H219.957L219.958 36.6099C219.958 36.6099 219.958 36.6099 219.958 36.6099C219.958 34.5823 222.412 33.5718 223.841 35.001C223.841 35.0009 223.841 35.0011 223.841 35.001L226.413 37.5714C227.301 38.4599 227.301 39.9005 226.413 40.7889L223.841 43.3593Z" fill="white"/>
<g clip-path="url(#clip1_1230_81485)">
<path d="M58.8853 33.6197L51.1638 15.9893L40.1742 18.2866C34.443 19.7799 30.8991 25.5068 32.1209 31.2961C32.6004 33.5836 33.3526 36.2846 34.6367 38.6476C34.6466 38.7395 33.2343 47.3775 25.7656 48.9364H48.1224L48.0929 43.5442C51.8206 41.9525 53.5515 38.3982 54.123 34.6207L58.8985 33.623H58.8853V33.6197Z" fill="#E58070"/>
<path d="M48.1228 22.5366C46.9766 22.7762 46.2442 23.8986 46.4839 25.0407C46.7237 26.1828 47.847 26.918 48.9899 26.6784C50.1362 26.4388 50.8686 25.3164 50.6288 24.1743C50.3891 23.0289 49.2658 22.2971 48.1228 22.5366Z" fill="black"/>
<path d="M51.1311 5.03726C51.1311 5.03726 50.1787 -0.453391 45.2193 0.029051C40.2565 0.511493 40.3058 5.83804 40.3058 5.83804C40.3058 5.83804 36.9492 1.36479 32.4069 4.01986C28.216 6.47802 30.6793 11.4534 30.6793 11.4534C30.6793 11.4534 21.0363 10.7412 24.0021 19.8026C26.6494 27.8991 34.6403 38.6408 34.6403 38.6408C34.7618 38.6802 36.4467 37.2493 37.9312 35.1751C37.0444 34.627 36.0525 33.754 35.1822 32.3592C32.9751 28.8082 35.7767 26.839 37.0838 27.4265C37.9016 27.8203 39.1629 28.2503 40.1613 28.7097C40.1514 28.6047 40.1547 28.4964 40.1383 28.3914C38.7589 19.8059 42.572 17.7875 51.1706 15.989C60.9087 13.9542 56.7146 4.35462 51.1311 5.03726Z" fill="black"/>
<path d="M118.054 96.5741H76.25V77.749L118.054 87.7556V96.5741Z" fill="#0050DC"/>
<path d="M0.205769 86.9884C0.205769 86.9884 4.22914 64.307 5.625 58.5506C7.02086 52.7941 8.87982 49.0002 19.5606 49.0002H54.559C63.3842 49.0002 70.4259 48.7672 73.7168 65.2555C77.0078 81.7439 80.729 102.358 80.729 102.358H20.1715C11.3595 102.351 -1.80427 98.1042 0.205769 86.9916V86.9884Z" fill="#0050DC"/>
<path d="M112.014 61.9134L101.77 95.8025H77.7872C68.0293 95.8025 66.6367 101.877 66.6367 101.877H153.2L165.28 61.9102H112.01L112.014 61.9134Z" fill="#CFCFCF"/>
<path d="M30.3079 100.204L30.1897 99.7542L69.3165 89.4392L67.6809 79.6295H20.9639L24.603 65.875L25.0529 65.9964L21.5682 79.17H68.0751L69.8453 89.7838L30.3079 100.207V100.204Z" fill="white"/>
<path d="M68.098 79.3007C68.098 79.3007 74.6602 77.9847 81.3374 76.7015C88.0178 75.4182 87.8437 77.1675 89.6206 81.4209C91.3974 85.6775 92.1397 88.5 92.9115 90.899C93.6866 93.2981 90.1625 94.8472 88.1886 90.899C86.2147 86.9509 84.2375 83.4228 84.2375 83.4228C84.2375 83.4228 85.5939 89.9243 86.0603 92.2413C86.5267 94.5584 83.8138 95.4543 82.4573 92.3989C81.1042 89.3434 78.1614 83.9282 78.1614 84.0792C78.1614 84.2302 78.8774 90.4494 79.2156 92.2807C79.5539 94.112 76.1874 94.88 75.7605 91.2765C75.3335 87.6696 69.7993 89.4944 69.7993 89.4944L68.0947 79.3007H68.098Z" fill="#E58070"/>
<path d="M59.211 79.4292C58.5114 74.1224 57.2601 65.5008 56.8955 64.9396C56.9382 64.9921 57.0105 65.0183 57.0761 65.0052L57.0006 64.5457C57.0696 64.5359 57.1418 64.5523 57.1977 64.595C57.3455 64.7066 57.5885 64.8871 58.6691 72.1959C59.1913 75.7732 59.6642 79.3472 59.6675 79.3702L59.2077 79.4292H59.211Z" fill="white"/>
</g>
<path d="M245.731 63.17C243.43 65.2827 242.395 66.2897 241.896 66.7609V61.1475C241.886 57.2132 238.677 54.0229 234.707 54C230.73 54.0125 227.51 57.2035 227.498 61.1437V73.2168C227.498 73.2168 227.114 72.7646 223.28 69.2384C219.445 65.7121 216.251 69.1472 219.081 72.8558C221.911 76.5645 227.478 81.8082 227.478 81.8082V89.8563C227.491 93.7965 230.711 96.9875 234.687 97C238.664 96.9875 241.884 93.7965 241.896 89.8563V75.3751C243.2 74.125 247.525 69.9109 249.911 66.7875C252.76 63.0788 249.546 59.6438 245.731 63.17Z" fill="#CFCFCF"/>
<path d="M223 89H247L242.041 102H227.959L223 89Z" fill="#D7DCF0"/>
<g clip-path="url(#clip2_1230_81485)">
<path d="M213.1 79L197.587 101.936H222L213.1 79Z" fill="black"/>
<path d="M185.802 79H213.101L201.483 101.936H174.181L185.802 79Z" fill="#F1A4C4"/>
<path d="M197.884 98.6436L204.065 86.3779H186.73L180.552 98.6436H197.884Z" fill="white"/>
<path d="M186.841 86.5655L180.86 98.4317H197.761L203.738 86.5655H186.841ZM186.59 86.166H204.39L198.009 98.8433H180.225L186.605 86.1781L186.59 86.166Z" fill="#F1A4C4"/>
<path d="M190.738 86.5655L184.93 98.4317H193.872L199.458 86.5655H190.738ZM190.485 86.166H200.091L194.138 98.8433H184.288L190.485 86.1781V86.166Z" fill="#F1A4C4"/>
<path d="M194.974 86.3812L195.337 86.5557L189.408 98.6429L189.045 98.4684L194.974 86.3812Z" fill="#F1A4C4"/>
</g>
<defs>
<clipPath id="clip0_1230_81485">
<rect width="209" height="68" fill="white" transform="translate(81 1)"/>
</clipPath>
<clipPath id="clip1_1230_81485">
<rect width="165.283" height="101.884" fill="white"/>
</clipPath>
<clipPath id="clip2_1230_81485">
<rect width="48" height="23" fill="white" transform="matrix(-1 0 0 1 222 79)"/>
</clipPath>
</defs>
</svg>
